<?xml version="1.0" encoding="UTF-8"?>
<svg viewBox="0 0 500 1000" xmlns="http://www.w3.org/2000/svg">
 <g transform="translate(0 -52.362)">
  <path transform="matrix(4.371 0 0 4.469 -872.85 -822.26)" d="m307.7 300.5a49.167 45.833 0 1 1 -23.611 -46.813l-24.927 39.506z" fill="#ff9937" stroke="#020000" stroke-width="4.0062"/>
  <path d="m97.259 345.33 140.79 146.8-165.43 101.13" fill="none" stroke="#000" stroke-width="13.671"/>
  <path d="m245.07 497.39z" fill="none" stroke="#000" stroke-width="12.831"/>
  <path d="m241.93 488.04 81.581 205.64" fill="#a00" stroke="#000" stroke-width="11.804"/>
  <path transform="matrix(1.1058 0 0 1.1782 26.523 -293.82)" d="m161.04 544.82a19.741 19.221 0 1 1 -39.481 0 19.741 19.221 0 1 1 39.481 0z" fill="#d40000"/>
  <path transform="matrix(1.8826 0 0 1.8695 -360.51 -189.38)" d="m265.98 358.84a13.507 14.026 0 1 1 -27.014 0 13.507 14.026 0 1 1 27.014 0z" fill="#fff"/>
  <path transform="matrix(1.1058 0 0 1.1782 -46.333 -200.28)" d="m161.04 544.82a19.741 19.221 0 1 1 -39.481 0 19.741 19.221 0 1 1 39.481 0z" fill="#d40000"/>
  <path transform="matrix(1.8826 0 0 1.8695 -360.51 -189.38)" d="m331.44 291.83a11.429 12.468 0 1 1 -22.858 0 11.429 12.468 0 1 1 22.858 0z" fill="#fff"/>
  <path transform="matrix(1.1058 0 0 1.1782 142.07 -308.34)" d="m161.04 544.82a19.741 19.221 0 1 1 -39.481 0 19.741 19.221 0 1 1 39.481 0z" fill="#d40000"/>
  <path transform="matrix(1.1058 0 0 1.1782 82.765 -231.35)" d="m161.04 544.82a19.741 19.221 0 1 1 -39.481 0 19.741 19.221 0 1 1 39.481 0z" fill="#d40000"/>
  <path transform="matrix(1.1058 0 0 1.1782 -52.201 -114.81)" d="m161.04 544.82a19.741 19.221 0 1 1 -39.481 0 19.741 19.221 0 1 1 39.481 0z" fill="#d40000"/>
  <path transform="matrix(1.1058 0 0 1.1782 59.293 -64.313)" d="m161.04 544.82a19.741 19.221 0 1 1 -39.481 0 19.741 19.221 0 1 1 39.481 0z" fill="#d40000"/>
  <path transform="matrix(1.1058 0 0 1.1782 84.721 3.6689)" d="m161.04 544.82a19.741 19.221 0 1 1 -39.481 0 19.741 19.221 0 1 1 39.481 0z" fill="#d40000"/>
  <path transform="matrix(1.1058 0 0 1.1782 4.5238 -157.55)" d="m161.04 544.82a19.741 19.221 0 1 1 -39.481 0 19.741 19.221 0 1 1 39.481 0z" fill="#d40000"/>
  <path transform="matrix(1.8826 0 0 1.8695 -360.51 -189.38)" d="m305.46 428.97a12.987 13.507 0 1 1 -25.975 0 12.987 13.507 0 1 1 25.975 0z" fill="#fff"/>
  <path transform="matrix(1.1058 0 0 1.1782 4.5239 -27.409)" d="m161.04 544.82a19.741 19.221 0 1 1 -39.481 0 19.741 19.221 0 1 1 39.481 0z" fill="#d40000"/>
  <path transform="matrix(1.8826 0 0 1.8695 175.44 -263.19)" d="m63.378 457.03 5.4731-9.6111 10.832 2.2353 1.2214 10.993-10.077 4.5585z" fill="#447821"/>
  <path transform="matrix(1.1058 0 0 1.1782 161.01 -93.448)" d="m161.04 544.82a19.741 19.221 0 1 1 -39.481 0 19.741 19.221 0 1 1 39.481 0z" fill="#d40000"/>
  <path transform="matrix(1.1058 0 0 1.1782 188.39 -33.236)" d="m161.04 544.82a19.741 19.221 0 1 1 -39.481 0 19.741 19.221 0 1 1 39.481 0z" fill="#d40000"/>
  <path transform="matrix(1.8826 0 0 1.8695 -360.51 -189.38)" d="m400.01 407.67a15.065 15.065 0 1 1 -30.13 0 15.065 15.065 0 1 1 30.13 0z" fill="#fff"/>
  <path transform="matrix(1.1058 0 0 1.1782 235.33 -83.737)" d="m161.04 544.82a19.741 19.221 0 1 1 -39.481 0 19.741 19.221 0 1 1 39.481 0z" fill="#d40000"/>
  <path transform="matrix(1.8826 0 0 1.8695 142.19 -465.19)" d="m63.378 457.03 5.4731-9.6111 10.832 2.2353 1.2214 10.993-10.077 4.5585z" fill="#447821"/>
  <path transform="matrix(1.8826 0 0 1.8695 108.93 -395.27)" d="m63.378 457.03 5.4731-9.6111 10.832 2.2353 1.2214 10.993-10.077 4.5585z" fill="#447821"/>
  <path transform="matrix(1.8826 0 0 1.8695 95.242 -537.06)" d="m63.378 457.03 5.4731-9.6111 10.832 2.2353 1.2214 10.993-10.077 4.5585z" fill="#447821"/>
  <path transform="matrix(1.8826 0 0 1.8695 58.078 -453.23)" d="m63.378 457.03 5.4731-9.6111 10.832 2.2353 1.2214 10.993-10.077 4.5585z" fill="#447821"/>
  <path transform="matrix(1.8826 0 0 1.8695 -31.899 -457.43)" d="m63.378 457.03 5.4731-9.6111 10.832 2.2353 1.2214 10.993-10.077 4.5585z" fill="#447821"/>
  <path transform="matrix(1.8826 0 0 1.8695 -63.196 -370.02)" d="m63.378 457.03 5.4731-9.6111 10.832 2.2353 1.2214 10.993-10.077 4.5585z" fill="#447821"/>
  <path transform="matrix(1.8826 0 0 1.8695 93.286 -317.58)" d="m63.378 457.03 5.4731-9.6111 10.832 2.2353 1.2214 10.993-10.077 4.5585z" fill="#447821"/>
  <path transform="matrix(1.8826 0 0 1.8695 34.605 -284.56)" d="m63.378 457.03 5.4731-9.6111 10.832 2.2353 1.2214 10.993-10.077 4.5585z" fill="#447821"/>
  <path transform="matrix(1.8826 0 0 1.8695 114.8 -251.54)" d="m63.378 457.03 5.4731-9.6111 10.832 2.2353 1.2214 10.993-10.077 4.5585z" fill="#447821"/>
  <path transform="matrix(1.8826 0 0 1.8695 150.01 -329.23)" d="m63.378 457.03 5.4731-9.6111 10.832 2.2353 1.2214 10.993-10.077 4.5585z" fill="#447821"/>
  <path transform="matrix(1.8826 0 0 1.8695 296.71 -305.92)" d="m63.378 457.03 5.4731-9.6111 10.832 2.2353 1.2214 10.993-10.077 4.5585z" fill="#447821"/>
  <path transform="matrix(1.8826 0 0 1.8695 257.59 -249.59)" d="m63.378 457.03 5.4731-9.6111 10.832 2.2353 1.2214 10.993-10.077 4.5585z" fill="#447821"/>
  <path transform="matrix(1.8826 0 0 1.8695 146.1 -191.32)" d="m63.378 457.03 5.4731-9.6111 10.832 2.2353 1.2214 10.993-10.077 4.5585z" fill="#447821"/>
 </g>
</svg>
