<?xml version="1.0" encoding="UTF-8"?>
<svg width="210mm" height="297mm" fill-rule="evenodd" stroke-linejoin="round" stroke-width="28.222" baseProfile="tiny" preserveAspectRatio="xMidYMid" version="1.2" viewBox="0 0 21000 29700" xml:space="preserve" xmlns="http://www.w3.org/2000/svg">
  <rect width="21000" height="29700" fill="none"/>
   <path d="m6434 3900c-617 0-1234 617-1234 1234v21833c0 617 617 1234 1234 1234h8933c617 0 1234-617 1234-1234v-21833c0-617-617-1234-1234-1234h-8933z"/>
   <path d="m6434 3900c-617 0-1234 617-1234 1234v21833c0 617 617 1234 1234 1234h8933c617 0 1234-617 1234-1234v-21833c0-617-617-1234-1234-1234h-8933z" fill="none" stroke="#000" stroke-linejoin="round"/>
   <rect x="5200" y="3900" width="11401" height="24301" fill="none"/>
   <path d="m14183 2500c-92 0-183 91-183 183v1234c0 91 91 183 183 183h734c92 0 184-92 184-183v-1234c0-92-92-183-184-183h-734z"/>
   <path d="m14183 2500c-92 0-183 91-183 183v1234c0 91 91 183 183 183h734c92 0 184-92 184-183v-1234c0-92-92-183-184-183h-734z" fill="none" stroke="#000" stroke-linejoin="round"/>
   <rect x="14000" y="2500" width="1101" height="1601" fill="none"/>
   <path d="m10950 16200h-3750v-9900h7500v9900h-3750z" fill="#fff"/>
   <path d="m10950 16200h-3750v-9900h7500v9900h-3750z" fill="none" stroke="#000" stroke-linejoin="round"/>
   <path d="m9700 4900c-100 0-200 100-200 200s100 201 200 201h2200c100 0 201-101 201-201s-101-200-201-200h-2200z" fill="#fff"/>
   <path d="m9700 4900c-100 0-200 100-200 200s100 201 200 201h2200c100 0 201-101 201-201s-101-200-201-200h-2200z" fill="none" stroke="#000" stroke-linejoin="round"/>
   <rect x="9500" y="4900" width="2601" height="401" fill="none"/>
   <path d="m7283 17100c-92 0-183 91-183 183v734c0 92 91 184 183 184h1534c91 0 183-92 183-184v-734c0-92-92-183-183-183h-1534z" fill="#fff"/>
   <path d="m7283 17100c-92 0-183 91-183 183v734c0 92 91 184 183 184h1534c91 0 183-92 183-184v-734c0-92-92-183-183-183h-1534z" fill="none" stroke="#000" stroke-linejoin="round"/>
   <rect x="7100" y="17100" width="1901" height="1101" fill="none"/>
   <path d="m12983 17101c-92 0-183 91-183 183v734c0 92 91 184 183 184h1534c91 0 183-92 183-184v-734c0-92-92-183-183-183h-1534z" fill="#fff"/>
   <path d="m12983 17101c-92 0-183 91-183 183v734c0 92 91 184 183 184h1534c91 0 183-92 183-184v-734c0-92-92-183-183-183h-1534z" fill="none" stroke="#000" stroke-linejoin="round"/>
   <rect x="12800" y="17101" width="1901" height="1101" fill="none"/>
   <path d="m9900 17100h1901v1201h-1901v-1201z" fill="#fff"/>
   <path d="m9900 17100h1901v1201h-1901v-1201z" fill="none" stroke="#000" stroke-linejoin="round"/>
   <path d="m9900 17100h1901l-249 248h-1404l-248-248z" fill="#fff"/>
   <path d="m9900 17100h1901l-249 248h-1404l-248-248z" fill="none" stroke="#000" stroke-linejoin="round"/>
   <path d="m11801 17100v1201l-249-249v-704l249-248z" fill="#999"/>
   <path d="m11801 17100v1201l-249-249v-704l249-248z" fill="none" stroke="#000" stroke-linejoin="round"/>
   <path d="m11801 18301h-1901l248-249h1404l249 249z" fill="#ccc"/>
   <path d="m11801 18301h-1901l248-249h1404l249 249z" fill="none" stroke="#000" stroke-linejoin="round"/>
   <path d="m9900 18301v-1201l248 248v704l-248 249z" fill="#fff"/>
   <path d="m9900 18301v-1201l248 248v704l-248 249z" fill="none" stroke="#000" stroke-linejoin="round"/>
   <rect x="9900" y="17100" width="1901" height="1201" fill="none"/>
   <path d="m7483 19200c-92 0-183 91-183 183v734c0 92 91 184 183 184h1334c91 0 183-92 183-184v-734c0-92-92-183-183-183h-1334z" fill="#fff"/>
   <path d="m7483 19200c-92 0-183 91-183 183v734c0 92 91 184 183 184h1334c91 0 183-92 183-184v-734c0-92-92-183-183-183h-1334z" fill="none" stroke="#000" stroke-linejoin="round"/>
   <rect x="7300" y="19200" width="1701" height="1101" fill="none"/>
   <path d="m10183 19201c-92 0-183 91-183 183v734c0 92 91 184 183 184h1334c91 0 183-92 183-184v-734c0-92-92-183-183-183h-1334z" fill="#fff"/>
   <path d="m10183 19201c-92 0-183 91-183 183v734c0 92 91 184 183 184h1334c91 0 183-92 183-184v-734c0-92-92-183-183-183h-1334z" fill="none" stroke="#000" stroke-linejoin="round"/>
   <rect x="1e4" y="19201" width="1701" height="1101" fill="none"/>
   <path d="m12883 19201c-92 0-183 91-183 183v734c0 92 91 184 183 184h1334c91 0 183-92 183-184v-734c0-92-92-183-183-183h-1334z" fill="#fff"/>
   <path d="m12883 19201c-92 0-183 91-183 183v734c0 92 91 184 183 184h1334c91 0 183-92 183-184v-734c0-92-92-183-183-183h-1334z" fill="none" stroke="#000" stroke-linejoin="round"/>
   <rect x="12700" y="19201" width="1701" height="1101" fill="none"/>
   <path d="m10183 21101c-92 0-183 91-183 183v734c0 92 91 184 183 184h1334c91 0 183-92 183-184v-734c0-92-92-183-183-183h-1334z" fill="#fff"/>
   <path d="m10183 21101c-92 0-183 91-183 183v734c0 92 91 184 183 184h1334c91 0 183-92 183-184v-734c0-92-92-183-183-183h-1334z" fill="none" stroke="#000" stroke-linejoin="round"/>
   <rect x="1e4" y="21101" width="1701" height="1101" fill="none"/>
   <path d="m7483 21101c-92 0-183 91-183 183v734c0 92 91 184 183 184h1334c91 0 183-92 183-184v-734c0-92-92-183-183-183h-1334z" fill="#fff"/>
   <path d="m7483 21101c-92 0-183 91-183 183v734c0 92 91 184 183 184h1334c91 0 183-92 183-184v-734c0-92-92-183-183-183h-1334z" fill="none" stroke="#000" stroke-linejoin="round"/>
   <rect x="7300" y="21101" width="1701" height="1101" fill="none"/>
   <path d="m12883 21101c-92 0-183 91-183 183v734c0 92 91 184 183 184h1334c91 0 183-92 183-184v-734c0-92-92-183-183-183h-1334z" fill="#fff"/>
   <path d="m12883 21101c-92 0-183 91-183 183v734c0 92 91 184 183 184h1334c91 0 183-92 183-184v-734c0-92-92-183-183-183h-1334z" fill="none" stroke="#000" stroke-linejoin="round"/>
   <rect x="12700" y="21101" width="1701" height="1101" fill="none"/>
   <path d="m7483 23001c-92 0-183 91-183 183v734c0 92 91 184 183 184h1334c91 0 183-92 183-184v-734c0-92-92-183-183-183h-1334z" fill="#fff"/>
   <path d="m7483 23001c-92 0-183 91-183 183v734c0 92 91 184 183 184h1334c91 0 183-92 183-184v-734c0-92-92-183-183-183h-1334z" fill="none" stroke="#000" stroke-linejoin="round"/>
   <rect x="7300" y="23001" width="1701" height="1101" fill="none"/>
   <path d="m10183 23001c-92 0-183 91-183 183v734c0 92 91 184 183 184h1334c91 0 183-92 183-184v-734c0-92-92-183-183-183h-1334z" fill="#fff"/>
   <path d="m10183 23001c-92 0-183 91-183 183v734c0 92 91 184 183 184h1334c91 0 183-92 183-184v-734c0-92-92-183-183-183h-1334z" fill="none" stroke="#000" stroke-linejoin="round"/>
   <rect x="1e4" y="23001" width="1701" height="1101" fill="none"/>
   <path d="m12883 23001c-92 0-183 91-183 183v734c0 92 91 184 183 184h1334c91 0 183-92 183-184v-734c0-92-92-183-183-183h-1334z" fill="#fff"/>
   <path d="m12883 23001c-92 0-183 91-183 183v734c0 92 91 184 183 184h1334c91 0 183-92 183-184v-734c0-92-92-183-183-183h-1334z" fill="none" stroke="#000" stroke-linejoin="round"/>
   <rect x="12700" y="23001" width="1701" height="1101" fill="none"/>
   <path d="m7483 24901c-92 0-183 91-183 183v734c0 92 91 184 183 184h1334c91 0 183-92 183-184v-734c0-92-92-183-183-183h-1334z" fill="#fff"/>
   <path d="m7483 24901c-92 0-183 91-183 183v734c0 92 91 184 183 184h1334c91 0 183-92 183-184v-734c0-92-92-183-183-183h-1334z" fill="none" stroke="#000" stroke-linejoin="round"/>
   <rect x="7300" y="24901" width="1701" height="1101" fill="none"/>
   <path d="m10183 24901c-92 0-183 91-183 183v734c0 92 91 184 183 184h1334c91 0 183-92 183-184v-734c0-92-92-183-183-183h-1334z" fill="#fff"/>
   <path d="m10183 24901c-92 0-183 91-183 183v734c0 92 91 184 183 184h1334c91 0 183-92 183-184v-734c0-92-92-183-183-183h-1334z" fill="none" stroke="#000" stroke-linejoin="round"/>
   <rect x="1e4" y="24901" width="1701" height="1101" fill="none"/>
   <path d="m12883 24901c-92 0-183 91-183 183v734c0 92 91 184 183 184h1334c91 0 183-92 183-184v-734c0-92-92-183-183-183h-1334z" fill="#fff"/>
   <path d="m12883 24901c-92 0-183 91-183 183v734c0 92 91 184 183 184h1334c91 0 183-92 183-184v-734c0-92-92-183-183-183h-1334z" fill="none" stroke="#000" stroke-linejoin="round"/>
   <rect x="12700" y="24901" width="1701" height="1101" fill="none"/>
</svg>
